<svg width="120" height="120" viewBox="0 0 120 120" fill="none" xmlns="http://www.w3.org/2000/svg">
<g clip-path="url(#clip0)">
<path d="M60 120C93.1371 120 120 93.1371 120 60C120 26.8629 93.1371 0 60 0C26.8629 0 0 26.8629 0 60C0 93.1371 26.8629 120 60 120Z" fill="#FD8469"/>
<path d="M60.2816 85.7007C60.1872 85.7007 60.0927 85.7952 59.9982 85.7952C59.9038 85.7952 59.8093 85.7007 59.7148 85.7007H60.2816Z" fill="#84DBFF"/>
<path d="M106.581 97.7953C95.6207 111.307 78.8018 120 59.9987 120C41.1955 120 24.3766 111.307 13.416 97.7953C21.2585 87.3071 33.2585 82.1103 43.0853 79.5591C42.3294 85.7953 45.542 94.1103 45.6365 93.9213C48.9436 86.3622 59.9987 85.7008 59.9987 85.7008C59.9987 85.7008 71.0538 86.3622 74.2664 93.9213C74.3609 94.1103 77.668 85.7953 76.8176 79.5591C86.7389 82.1103 98.8333 87.3071 106.581 97.7953Z" fill="#84DBFF"/>
<path d="M73.512 73.7007C73.512 73.7007 73.512 73.7007 73.512 73.7952C73.512 74.74 73.0396 80.7873 60.2836 85.6062H59.7167C46.9607 80.7873 46.4883 74.74 46.4883 73.7952C46.4883 73.7007 46.4883 73.7007 46.4883 73.7007C46.4883 72.4723 46.7717 71.244 47.0552 70.0156C50.7403 74.6455 55.1812 77.7637 60.0002 77.7637C64.8191 77.7637 69.26 74.6455 72.9451 70.0156C73.2286 71.244 73.512 72.4723 73.512 73.7007Z" fill="white"/>
<path d="M73.5117 73.7007C73.5117 73.7007 74.1731 80.5038 60 85.7952C60 85.7952 71.055 86.4566 74.2676 94.0156C74.4566 94.2046 80.7873 77.7637 73.5117 73.7007Z" fill="#54C0EB"/>
<path d="M46.4871 73.7007C39.2115 77.7637 45.5422 94.2046 45.7312 93.9212C49.0383 86.3621 59.999 85.7007 59.999 85.7007C45.8257 80.5038 46.4871 73.7007 46.4871 73.7007Z" fill="#54C0EB"/>
<path d="M79.8429 49.795C78.9925 55.6533 76.4413 61.1336 72.1893 65.2911C71.3389 66.1415 70.583 66.8029 69.6381 67.4643L68.1263 62.6454H51.8744L50.3626 67.4643C47.3389 65.1966 41.0082 58.8659 40.9138 52.9131C38.2681 18.9919 64.2523 26.173 64.2523 26.173C81.7326 24.9446 81.1657 40.3462 79.8429 49.795Z" fill="white"/>
<path d="M83.3383 55.9371C82.0155 58.1103 80.2203 59.6221 78.5195 60.189C79.1809 58.6772 79.7479 57.0709 80.2203 55.4646C80.2203 55.4646 80.2203 55.4646 80.2203 55.3701C80.5982 53.9528 80.9762 52.5355 81.3541 51.1182H81.2596C81.6376 49.7009 82.0155 48.2835 82.299 46.8662C82.6769 46.8662 83.0549 47.0552 83.4328 47.2442C85.5115 48.567 85.417 52.441 83.3383 55.9371Z" fill="white"/>
<path d="M41.4803 60.1888C39.7795 59.6219 37.9843 58.11 36.6614 55.9368C34.4882 52.4408 34.4882 48.5667 36.567 47.3384C36.7559 47.2439 36.8504 47.1494 37.0394 47.1494C38.1732 51.5904 39.4961 54.8974 39.7795 55.5589C40.252 57.0707 40.8189 58.677 41.4803 60.1888Z" fill="white"/>
<path d="M70.3002 16.7244C71.0561 8.03144 57.2609 8.59837 57.2609 8.59837C36.379 11.622 34.1113 31.0866 34.1113 31.0866L36.946 27.685C32.505 37.4173 39.2137 54.1417 39.7806 55.4645C43.2767 67.0866 51.0247 77.7637 60.001 77.7637C68.9774 77.7637 76.7254 67.0866 80.2215 55.4645C80.2215 55.4645 80.2215 55.4645 80.2215 55.37C80.5994 53.9527 80.9774 52.5354 81.2608 51.1181H81.1663C83.0561 43.559 85.1348 35.9055 85.1348 35.9055C90.5206 8.78734 70.3002 16.7244 70.3002 16.7244ZM79.8435 49.7952C78.9931 55.6535 76.4419 61.1338 72.19 65.2913C71.3396 66.1417 70.4892 66.8031 69.6388 67.4645L68.127 62.7401H51.8751L50.3633 67.559C47.3396 65.2913 44.7885 62.1732 42.7097 58.5826C41.7649 56.6929 41.1979 54.7086 40.9145 53.0078C38.2688 19.0866 64.253 26.2677 64.253 26.2677C81.7333 24.9448 81.1663 40.3464 79.8435 49.7952Z" fill="#324A5E"/>
<path d="M70.3002 16.7244C71.0561 8.03144 57.2609 8.59837 57.2609 8.59837C36.379 11.622 34.1113 31.0866 34.1113 31.0866L36.946 27.685C32.505 37.4173 39.2137 54.1417 39.7806 55.4645C43.2767 67.0866 51.0247 77.7637 60.001 77.7637C68.9774 77.7637 76.7254 67.0866 80.2215 55.4645C80.2215 55.4645 80.2215 55.4645 80.2215 55.37C80.5994 53.9527 80.9774 52.5354 81.2608 51.1181H81.1663C83.0561 43.559 85.1348 35.9055 85.1348 35.9055C90.5206 8.78734 70.3002 16.7244 70.3002 16.7244ZM79.8435 49.7952C78.9931 55.6535 76.4419 61.1338 72.19 65.2913C71.3396 66.1417 70.4892 66.8031 69.6388 67.4645L68.127 62.7401H51.8751L50.3633 67.559C47.3396 65.2913 44.7885 62.1732 42.7097 58.5826C41.7649 56.6929 41.1979 54.7086 40.9145 53.0078C38.2688 19.0866 64.253 26.2677 64.253 26.2677C81.7333 24.9448 81.1663 40.3464 79.8435 49.7952Z" fill="#324A5E"/>
<path d="M70.3002 16.7244C71.0561 8.03144 57.2609 8.59837 57.2609 8.59837C36.379 11.622 34.1113 31.0866 34.1113 31.0866L36.946 27.685C32.505 37.4173 39.2137 54.1417 39.7806 55.4645C43.2767 67.0866 51.0247 77.7637 60.001 77.7637C68.9774 77.7637 76.7254 67.0866 80.2215 55.4645C80.2215 55.4645 80.2215 55.4645 80.2215 55.37C80.5994 53.9527 80.9774 52.5354 81.2608 51.1181H81.1663C83.0561 43.559 85.1348 35.9055 85.1348 35.9055C90.5206 8.78734 70.3002 16.7244 70.3002 16.7244ZM79.8435 49.7952C78.9931 55.6535 76.4419 61.1338 72.19 65.2913C71.3396 66.1417 70.4892 66.8031 69.6388 67.4645L68.127 62.7401H51.8751L50.3633 67.559C47.3396 65.2913 41.009 58.9606 40.9145 53.0078C38.2688 19.0866 64.253 26.2677 64.253 26.2677C81.7333 24.9448 81.1663 40.3464 79.8435 49.7952Z" fill="#324A5E"/>
<path d="M53.3867 65.9526C54.993 67.7479 57.3552 68.9763 60.0009 68.9763C62.6466 68.9763 65.0088 67.8424 66.6151 65.9526H53.3867Z" fill="white"/>
</g>
<defs>
<clipPath id="clip0">
<rect width="120" height="120" fill="white"/>
</clipPath>
</defs>
</svg>
