<svg width="105" height="105" viewBox="0 0 105 105" fill="none" xmlns="http://www.w3.org/2000/svg">
    <rect width="105" height="105" fill="#373E43"/>
    <path d="M91.2606 80.9427C91.2606 76.8919 88.2755 73.1886 83.5497 71.3769L66.9373 65.0089C64.7906 64.1861 63.4347 62.5039 63.4349 60.6639V55.6663C63.9929 55.1708 64.5173 54.6538 65.0062 54.1171C67.2477 51.6749 68.9888 48.9844 70.1696 46.1389C72.3574 45.6289 73.8572 44.0861 73.8695 42.333V36.9997C73.8637 35.8699 73.2313 34.795 72.1304 34.0439V26.333C72.1304 26.333 74.1955 14.333 53 14.333C31.8044 14.333 33.8695 26.333 33.8695 26.333V34.0439C32.7686 34.795 32.1362 35.8697 32.1304 36.9997V42.333C32.1359 43.6922 33.0417 44.9563 34.5351 45.6888C35.6897 49.3178 37.8337 52.7183 40.8261 55.6663V60.54C40.8261 62.3177 39.5597 63.9535 37.5241 64.8047L22.0089 71.293C17.5275 73.1671 14.7393 76.768 14.7393 80.6816V84.9997C14.7393 88.6817 31.8692 91.6664 53 91.6664C74.1307 91.6664 91.2606 88.6817 91.2606 84.9997V80.9427Z" fill="#E3E7F2"/>
    <path d="M86.0433 80.9427C86.0433 76.8919 83.0582 73.1886 78.3324 71.3769L61.7199 65.0089C59.5732 64.1861 58.2173 62.5039 58.2175 60.6639V55.6663C58.7756 55.1708 59.2999 54.6538 59.7889 54.1171C62.0303 51.6749 63.7714 48.9844 64.9522 46.1389C67.1401 45.6289 68.6399 44.0861 68.6521 42.333V36.9997C68.6464 35.8699 68.014 34.795 66.913 34.0439V26.333C66.913 26.333 68.9782 14.333 47.7826 14.333C36.0435 14.333 33.8695 26.333 33.8695 26.333V34.0439C32.7686 34.795 32.1362 35.8697 32.1305 36.9997V42.333C32.136 43.6922 33.0417 44.9563 34.5351 45.6888C35.6897 49.3178 37.8337 52.7183 40.8261 55.6663V60.54C40.8261 62.3177 39.5597 63.9535 37.5241 64.8047L25.4871 71.293C21.0056 73.1669 13 76.7678 13 80.6816V84.9997C13 88.6817 49.84 91.6664 47.7826 91.6664C68.9134 91.6664 86.0433 88.6817 86.0433 84.9997V80.9427Z" fill="#E3E7F2"/>
    <path d="M53 93C39.1651 93 13 91.3281 13 85V80.6823C12.998 76.2803 16.1343 72.2294 21.176 70.1225L36.6914 63.6342C38.1683 63.0169 39.0873 61.8302 39.0869 60.5405V56.1291C36.2646 53.2433 34.196 49.9667 32.9948 46.4794C31.3495 45.473 30.3912 43.9472 30.3912 42.3336V37C30.3977 35.7102 31.0158 34.4662 32.1302 33.5V26.4075C31.7925 23.2523 33.1012 20.1233 35.769 17.707C39.3408 14.5833 45.1382 13 53 13C60.8617 13 66.6591 14.5833 70.2307 17.707C72.8985 20.1233 74.2072 23.2523 73.8695 26.4075V33.5C74.9839 34.4662 75.602 35.7102 75.6085 37V42.3333C75.6114 44.4106 74.0284 46.297 71.5614 47.1562C70.3386 49.908 68.6089 52.5116 66.4247 54.888C65.9916 55.358 65.5722 55.7825 65.1738 56.1562V60.6641C65.1677 62.0002 66.153 63.2228 67.7146 63.8164L84.3281 70.1848C89.6567 72.2106 93.0199 76.3827 92.9999 80.9427V85C92.9997 91.3281 66.8348 93 53 93ZM53 15.6667C46.1835 15.6667 41.2668 16.9441 38.3846 19.4648C36.3419 21.3278 35.3391 23.733 35.5933 26.1589C35.6035 26.2167 35.6086 26.275 35.6086 26.3334V34.0444C35.6088 34.4216 35.4005 34.7812 35.0353 35.0339C34.2971 35.5309 33.8726 36.2469 33.8693 37V42.3333C33.8732 43.2402 34.4799 44.083 35.4785 44.5689C35.859 44.7573 36.1287 45.052 36.2302 45.3905C37.3242 48.8145 39.3445 52.0241 42.16 54.8111C42.4217 55.0511 42.565 55.3538 42.565 55.6666V60.5403C42.5652 62.8058 40.9515 64.8903 38.3573 65.9752L22.8419 72.4634C18.9174 74.1028 16.4761 77.2558 16.4781 80.6822V85C16.4781 86.8098 29.3687 90.3333 52.9998 90.3333C76.6308 90.3333 89.5214 86.8098 89.5214 85V80.9427C89.5377 77.3936 86.92 74.1463 82.772 72.5703L66.1585 66.2019C63.416 65.1588 61.6853 63.0112 61.6952 60.6642V55.6669C61.695 55.3428 61.8491 55.0298 62.1283 54.7867C62.646 54.3267 63.1321 53.8466 63.5847 53.348C65.7255 51.0167 67.3875 48.448 68.5133 45.7308C68.6873 45.3169 69.1141 44.9941 69.6562 44.8662C71.1191 44.5328 72.1241 43.5037 72.1298 42.3337V37C72.1265 36.2469 71.702 35.5309 70.9638 35.0339C70.5986 34.7811 70.3903 34.4216 70.3905 34.0444V26.3334C70.3905 26.2752 70.3956 26.2167 70.4058 26.1589C70.6435 23.7222 69.631 21.3106 67.584 19.4375C64.6983 16.9348 59.7909 15.6667 53 15.6667Z" fill="#E3E7F2"/>
</svg>
