<svg width="12" height="12" viewBox="0 0 12 12" fill="none" xmlns="http://www.w3.org/2000/svg">
<g clip-path="url(#clip0)">
<path d="M6.58872 7.1143V6.84753C6.58872 6.52271 6.32505 6.25928 6.00047 6.25928C5.67542 6.25928 5.41199 6.52271 5.41199 6.84753V7.1143C5.41199 7.43888 5.67542 7.70255 6.00047 7.70255C6.32505 7.70255 6.58872 7.43912 6.58872 7.1143Z" fill="#AAABAE"/>
<path d="M6.99211 7.4395C6.86194 7.8663 6.46906 8.17989 6.00047 8.17989C5.53163 8.17989 5.13875 7.86654 5.00835 7.4395H0.955565C0.699773 7.4395 0.458073 7.38003 0.241211 7.27686V9.9678C0.241211 10.4932 0.671113 10.9231 1.19655 10.9231H10.8039C11.3293 10.9231 11.7592 10.4932 11.7592 9.9678V7.27709C11.5424 7.38027 11.3007 7.43974 11.0451 7.43974L6.99211 7.4395Z" fill="#AAABAE"/>
<path d="M11.0043 2.6076H8.71099C8.5727 1.74159 7.82205 1.07715 6.91782 1.07715H5.08023C4.17576 1.07715 3.42582 1.74159 3.28706 2.6076H0.994247C0.446838 2.6076 -0.000976562 3.0375 -0.000976562 3.56294V5.7681C-0.000976562 6.29544 0.426776 6.72343 0.954361 6.72343H4.962C4.97562 6.44901 5.0936 6.20134 5.28013 6.02293C5.28586 6.01768 5.29255 6.01314 5.29852 6.00789C5.33984 5.96991 5.38283 5.93409 5.42988 5.90304C5.4466 5.89181 5.46571 5.88417 5.48314 5.87414C5.52183 5.85193 5.56005 5.82876 5.60184 5.81156C5.63456 5.79795 5.66991 5.79007 5.7043 5.7798C5.73392 5.77096 5.7621 5.75926 5.79291 5.75305C5.85978 5.73944 5.92881 5.73227 5.99926 5.73227C6.06996 5.73227 6.13874 5.73968 6.20538 5.75305C6.23595 5.75926 6.26437 5.77096 6.29422 5.7798C6.32861 5.79007 6.36348 5.79795 6.39668 5.8118C6.43824 5.829 6.47621 5.85193 6.51491 5.87414C6.53234 5.88441 6.55145 5.89205 6.56864 5.90328C6.61569 5.93409 6.65845 5.96991 6.69976 6.00789C6.70573 6.01338 6.71314 6.01768 6.71839 6.02341C6.90516 6.20206 7.02291 6.44901 7.03652 6.72391H11.0442C11.5717 6.72391 11.9995 6.29616 11.9995 5.76857V3.56342C11.9995 3.0375 11.5517 2.6076 11.0043 2.6076ZM4.20729 2.6076C4.32909 2.23956 4.6723 1.97134 5.0807 1.97134H6.9183C7.32647 1.97134 7.66967 2.23956 7.79148 2.6076H4.20729Z" fill="#AAABAE"/>
</g>
<defs>
<clipPath id="clip0">
<rect width="12" height="12" fill="white"/>
</clipPath>
</defs>
</svg>
