<svg width="12" height="12" viewBox="0 0 12 12" fill="none" xmlns="http://www.w3.org/2000/svg">
<path d="M5.99722 3.7273C6.61076 3.7273 7.10773 3.32049 7.10773 2.81819C7.10773 2.64774 7.04942 2.48638 6.94948 2.35001L5.99722 1L5.04496 2.35001C4.94502 2.48638 4.88672 2.64774 4.88672 2.81819C4.88672 3.32049 5.38368 3.7273 5.99722 3.7273Z" fill="#AAABAE"/>
<path d="M9.32871 5.09123H6.55247V4.18213H5.44196V5.09123H2.66574C1.7468 5.09123 1 5.70259 1 6.45488V7.15488C1 7.64579 1.48861 8.04579 2.08828 8.04579C2.37978 8.04579 2.65184 7.95261 2.8573 7.78441L4.04552 6.81395L5.23099 7.78213C5.64188 8.11851 6.35815 8.11851 6.76901 7.78213L7.95723 6.81395L9.1427 7.78213C9.34813 7.95031 9.62022 8.04351 9.91172 8.04351C10.5114 8.04351 11 7.64351 11 7.1526V6.45488C10.9945 5.70259 10.2477 5.09123 9.32871 5.09123Z" fill="#AAABAE"/>
<path d="M8.5486 8.26597L7.95172 7.77734L7.35205 8.26597C6.62745 8.85916 5.36149 8.85916 4.63689 8.26597L4.03998 7.77734L3.44031 8.26597C3.08218 8.5637 2.6019 8.72733 2.08828 8.72733C1.68571 8.72733 1.31092 8.62278 1 8.44779V10.5455C1 10.7955 1.24986 11.0001 1.55524 11.0001H10.4392C10.7446 11.0001 10.9944 10.7955 10.9944 10.5455V8.44781C10.6835 8.6228 10.3115 8.72735 9.90615 8.72735C9.39256 8.72735 8.91228 8.56372 8.5486 8.26597Z" fill="#AAABAE"/>
</svg>
