<svg width="12" height="12" viewBox="0 0 12 12" fill="none" xmlns="http://www.w3.org/2000/svg">
<path d="M5.78672 0.000236564C5.73638 -0.00163828 5.68603 0.00773631 5.63743 0.0246109L0.304321 1.94457C0.0716914 2.02895 -0.0550392 2.30082 0.0230824 2.55206C0.101204 2.80331 0.35293 2.94018 0.585558 2.85581L5.77804 0.986467L10.9705 2.85581C11.2032 2.94018 11.4549 2.80331 11.533 2.55206C11.6111 2.30082 11.4844 2.02895 11.2518 1.94457L5.91866 0.0246109C5.877 0.00961115 5.83186 0.00211141 5.78672 0.000236564ZM5.78672 3.36017C5.73638 3.3583 5.68603 3.36767 5.63743 3.38455L0.304321 5.30451C0.122037 5.37013 0.000514006 5.55388 0.000514006 5.76012C0.000514006 5.96637 0.122037 6.15012 0.304321 6.21574L5.63743 8.1357C5.72944 8.16945 5.82665 8.16945 5.91866 8.1357L10.6667 6.42761V9.25318C10.4028 9.42005 10.2223 9.72567 10.2223 10.08C10.2223 10.6107 11.1111 12 11.1111 12C11.1111 12 12 10.6107 12 10.08C12 9.72567 11.8195 9.42005 11.5556 9.25318V5.7845C11.5556 5.777 11.5556 5.76762 11.5556 5.76012C11.5556 5.747 11.5556 5.73387 11.5538 5.72075C11.5538 5.71887 11.5538 5.71512 11.5538 5.71325C11.5538 5.70387 11.5521 5.69637 11.5504 5.68887C11.5504 5.687 11.5504 5.68512 11.5504 5.68325C11.5486 5.66825 11.5452 5.65513 11.5417 5.642C11.5018 5.45638 11.3611 5.31388 11.1875 5.28013L5.91866 3.38455C5.877 3.36955 5.83186 3.36205 5.78672 3.36017ZM2.66707 8.07758V9.60005C2.66707 9.60005 3.38058 10.56 5.77804 10.56C8.17551 10.56 8.88902 9.60005 8.88902 9.60005V8.07758L6.1999 9.04506C6.06275 9.09568 5.9204 9.12006 5.77804 9.12006C5.63569 9.12006 5.49333 9.09568 5.35619 9.04506L2.66707 8.07758Z" fill="#AAABAE"/>
</svg>
