<svg width="20" height="20" viewBox="0 0 20 20" fill="none" xmlns="http://www.w3.org/2000/svg">
<rect width="20" height="20" fill="#DBDBDD"/>
<path d="M14.5237 5.47619C13.8884 4.84127 12.8551 4.84127 12.2198 5.47619L5.69267 12.0031C5.6896 12.0062 5.68779 12.01 5.68507 12.0133C5.68127 12.0176 5.67801 12.0223 5.67457 12.027C5.66498 12.0404 5.65756 12.0547 5.65195 12.0703C5.65032 12.075 5.64797 12.0791 5.6467 12.0839C5.64616 12.0857 5.64507 12.0875 5.64453 12.0893L5.00471 14.777C5.00181 14.7891 5.00109 14.8015 5.00072 14.8136C5.00072 14.8159 5 14.8181 5 14.8205C5.00018 14.8411 5.00471 14.8612 5.01176 14.8805C5.01339 14.8851 5.0152 14.8891 5.01719 14.8934C5.02606 14.9128 5.0371 14.9314 5.05267 14.947C5.06986 14.9642 5.09014 14.9774 5.11204 14.9864C5.13394 14.9955 5.15729 15 5.18063 15C5.19457 15 5.20869 14.9984 5.22244 14.9951L7.91025 14.3553C7.91513 14.3542 7.91948 14.3515 7.92418 14.3499C7.93034 14.3479 7.93613 14.3455 7.9421 14.3428C7.95513 14.3368 7.96726 14.3294 7.97848 14.3206C7.98283 14.3171 7.98735 14.3146 7.99151 14.3108C7.99296 14.3093 7.99477 14.3086 7.99622 14.3072L14.5235 7.78004C15.1588 7.14476 15.1588 6.11129 14.5237 5.47619ZM14.2678 5.73211C14.7181 6.1826 14.7564 6.88992 14.3854 7.38584L12.614 5.61447C13.1101 5.24343 13.8174 5.2818 14.2678 5.73211ZM13.3718 8.41985L11.58 6.62802L11.8359 6.3721L13.6278 8.16392L13.3718 8.41985ZM5.89792 14.1017C5.82715 14.031 5.71276 14.031 5.642 14.1017L5.50498 14.2387L5.96725 12.2971L6.76761 12.2082L6.66463 13.1352C6.6639 13.1421 6.66644 13.1484 6.66644 13.1551C6.66644 13.162 6.6639 13.1682 6.66463 13.1751C6.66535 13.181 6.66843 13.1859 6.66969 13.1917C6.67187 13.2022 6.67494 13.2118 6.67874 13.2216C6.68345 13.2333 6.68906 13.244 6.69594 13.2543C6.70155 13.2627 6.70716 13.2701 6.71404 13.2773C6.72273 13.2865 6.73214 13.2943 6.74246 13.3016C6.7506 13.3072 6.75838 13.3124 6.76743 13.3168C6.77938 13.3224 6.79187 13.3256 6.8049 13.3287C6.81178 13.3303 6.81739 13.3341 6.82445 13.3351C6.83096 13.3358 6.83748 13.3361 6.84418 13.3361H6.84436H6.84454H6.84472H6.8449C6.85142 13.3361 6.85811 13.3358 6.86463 13.3351L7.79169 13.2321L7.70282 14.0324L5.76091 14.4947L5.89792 14.3577C5.96851 14.2871 5.96851 14.1725 5.89792 14.1017ZM8.16943 13.1101L12.2198 9.05966C12.2905 8.98889 12.2905 8.8745 12.2198 8.80373C12.149 8.73296 12.0346 8.73296 11.9638 8.80373L7.9135 12.8542L7.04961 12.9501L7.14553 12.0862L11.1962 8.03596C11.267 7.9652 11.267 7.85081 11.1962 7.78004C11.1255 7.70927 11.0111 7.70927 10.9403 7.78004L6.88961 11.8303L6.31349 11.8944L11.324 6.88395L13.1159 8.67577L8.10536 13.6862L8.16943 13.1101ZM13.8837 7.908L12.0918 6.11618L12.3479 5.86007L14.1398 7.6519L13.8837 7.908Z" fill="black"/>
</svg>
