<svg width="12" height="12" viewBox="0 0 12 12" fill="none" xmlns="http://www.w3.org/2000/svg">
<path d="M11.7938 5.73929C11.7696 5.70861 11.1882 4.97922 10.1914 4.24689C8.85934 3.26826 7.40998 2.75098 5.99996 2.75098C4.59 2.75098 3.14063 3.26826 1.80856 4.24689C0.811769 4.9792 0.230335 5.70861 0.206088 5.73929L0 5.99994L0.206114 6.26062C0.230362 6.2913 0.811795 7.02072 1.80858 7.75305C3.14066 8.73165 4.59002 9.24894 5.99999 9.24894C7.40998 9.24894 8.85934 8.73165 10.1914 7.75305C11.1882 7.02072 11.7696 6.2913 11.7938 6.26062L12 5.99994L11.7938 5.73929ZM5.99996 8.27603C4.74494 8.27603 3.72388 7.25499 3.72388 5.99994C3.72388 5.80331 3.74894 5.61243 3.79604 5.43031L3.27639 5.34285C3.22548 5.55367 3.19848 5.77371 3.19848 5.99994C3.19848 6.81064 3.54477 7.54189 4.09701 8.05392C3.38612 7.79132 2.78162 7.42283 2.32539 7.08957C1.76017 6.67674 1.33656 6.2592 1.09506 5.99994C1.33667 5.74061 1.76022 5.32312 2.32539 4.91032C2.78162 4.57706 3.38615 4.20857 4.09701 3.94595L4.44562 4.33889C4.85275 3.95766 5.39953 3.72386 5.99996 3.72386C7.25498 3.72386 8.27602 4.74489 8.27602 5.99994C8.27602 7.25499 7.25498 8.27603 5.99996 8.27603ZM9.67453 7.08957C9.21824 7.42283 8.61377 7.79132 7.90291 8.05392C8.45513 7.54191 8.80142 6.81066 8.80142 5.99992C8.80142 5.18917 8.45513 4.45795 7.90291 3.94592C8.6138 4.20854 9.21824 4.57703 9.67453 4.91029C10.2398 5.32312 10.6634 5.74066 10.9049 5.99989C10.6633 6.25928 10.2397 6.67679 9.67453 7.08957Z" fill="#8D929A"/>
<path d="M4.5517 5.55715C4.50898 5.69714 4.48584 5.84564 4.48584 5.99961C4.48584 6.8359 5.16379 7.51388 6.00009 7.51388C6.83637 7.51388 7.51432 6.83592 7.51432 5.99961C7.51432 5.1633 6.83637 4.48535 6.00009 4.48535C5.59275 4.48535 5.22326 4.64649 4.95108 4.90814L5.69799 5.75005L4.5517 5.55715Z" fill="#8D929A"/>
</svg>
