<svg width="20" height="20" viewBox="0 0 20 20" fill="none" xmlns="http://www.w3.org/2000/svg">
<rect width="20" height="20" fill="#1A8FBF"/>
<path d="M11.5863 4.5C12.4597 4.5 12.8963 5.00237 12.8963 5.57679C12.8963 6.29421 12.138 6.95784 11.1497 6.95784C10.3222 6.95784 9.83943 6.54512 9.86239 5.86367C9.86239 5.28936 10.437 4.5 11.5863 4.5ZM8.89691 15.5C8.2073 15.5 7.70161 15.1412 8.18435 13.5624L8.97609 10.7621C9.11396 10.3136 9.13652 10.1343 8.97609 10.1343C8.76896 10.1343 7.87378 10.4441 7.34435 10.7492L7 10.2647C8.67778 9.0628 10.6081 8.35792 11.4353 8.35792C12.1247 8.35792 12.2398 9.05763 11.8951 10.1342L10.9887 13.0778C10.8277 13.598 10.897 13.7773 11.0574 13.7773C11.2643 13.7773 11.9427 13.5614 12.6091 13.1128L13 13.5615C11.368 14.961 9.58652 15.5 8.89691 15.5Z" fill="white"/>
</svg>
