<?xml version="1.0" encoding="iso-8859-1"?>
<!-- Generator: Adobe Illustrator 16.0.0, SVG Export Plug-In . SVG Version: 6.00 Build 0)  -->
<svg width="14" height="14" viewBox="0 0 14 14" fill="none" xmlns="http://www.w3.org/2000/svg">
<g clip-path="url(#clip0)">
<path d="M0.918215 7.31338H9.85559L7.55085 9.50281C7.37591 9.6658 7.37591 9.95039 7.55063 10.1136C7.63822 10.1953 7.75268 10.2461 7.86759 10.2461C7.98228 10.2461 8.09674 10.2103 8.18433 10.1286L11.0549 7.4538C11.1389 7.37544 11.1862 7.27033 11.1862 7.15959C11.1862 7.04884 11.1389 6.94311 11.0549 6.86475L10.9187 6.73791C10.8878 6.69612 10.8488 6.65977 10.8038 6.63114L8.18455 4.18783C8.00961 4.02463 7.7258 4.02463 7.55108 4.18783C7.37613 4.35102 7.37613 4.57565 7.55108 4.73905L9.45777 6.47756H0.918215C0.670919 6.47756 0.470215 6.66478 0.470215 6.89547C0.470215 7.12615 0.670919 7.31338 0.918215 7.31338Z" fill="white"/>
<path d="M14.4703 12.3871V1.99364C14.4703 0.991911 13.5949 0 12.5109 0H6.68671C5.62405 0 4.61426 0.956179 4.61426 1.99364V4.46767C4.61426 4.69836 4.81496 4.88558 5.06226 4.88558C5.30955 4.88558 5.51026 4.69836 5.51026 4.46767V1.99364C5.51026 1.41922 6.11976 0.835821 6.68671 0.835821H12.5109C13.1039 0.835821 13.5743 1.44952 13.5743 1.99364V12.3871C13.5743 12.9435 13.0808 13.1642 12.5109 13.1642H6.68671C6.15695 13.1642 5.51026 12.9788 5.51026 12.3871V9.90051C5.51026 9.66982 5.30955 9.4826 5.06226 9.4826C4.81496 9.4826 4.61426 9.66982 4.61426 9.90051V12.3871C4.61426 13.3677 5.5508 14 6.68671 14H12.5109C13.6724 14 14.4703 13.3361 14.4703 12.3871Z" fill="white"/>
</g>
<defs>
<clipPath id="clip0">
<rect width="14" height="14" fill="white"/>
</clipPath>
</defs>
</svg>