<svg width="12" height="12" viewBox="0 0 12 12" fill="none" xmlns="http://www.w3.org/2000/svg">
<g clip-path="url(#clip0)">
<path d="M6.00002 8.39979L4.51545 6.58057L0.270874 11.6746C0.42516 11.875 0.633446 11.9998 0.86316 11.9998H11.1369C11.3657 11.9998 11.5732 11.875 11.7266 11.6746L7.48459 6.58057L6.00002 8.39979Z" fill="#AAABAE"/>
<path d="M11.7292 0.325204C11.5749 0.123601 11.3674 0 11.1369 0H0.863155C0.634298 0 0.426869 0.124801 0.272583 0.327604L6.00001 7.20008L11.7292 0.325204Z" fill="#AAABAE"/>
<path d="M0 1.05322V11.0229L4.14257 6.09448L0 1.05322Z" fill="#AAABAE"/>
<path d="M7.85754 6.09466L12.0001 11.0231V1.0498L7.85754 6.09466Z" fill="#AAABAE"/>
</g>
<defs>
<clipPath id="clip0">
<rect width="12" height="12" fill="white"/>
</clipPath>
</defs>
</svg>
