<svg width="12" height="12" viewBox="0 0 12 12" fill="none" xmlns="http://www.w3.org/2000/svg">
<path d="M0.519475 6.51953L10.2265 6.51953L7.91029 8.83593C7.70737 9.03872 7.70737 9.3677 7.91029 9.57047C8.11321 9.77339 8.44219 9.77339 8.6448 9.57047L11.8478 6.3674C12.0507 6.1646 12.0507 5.8356 11.8478 5.63286L8.6448 2.42964C8.54337 2.32815 8.41045 2.27748 8.27755 2.27748C8.14465 2.27748 8.01172 2.32815 7.91029 2.42964C7.70737 2.63244 7.70737 2.96141 7.91029 3.16415L10.2265 5.48067L0.519475 5.48067C0.232618 5.48067 0 5.71326 0 6.00011C0 6.28697 0.232588 6.51953 0.519475 6.51953Z" fill="#333333"/>
</svg>
