<svg width="13" height="12" viewBox="0 0 13 12" fill="none" xmlns="http://www.w3.org/2000/svg">
<g clip-path="url(#clip0)">
<path d="M11 4.55255V1.26097H10.8889V0.317268C10.8889 0.1422 10.7094 0 10.488 0H2.40095C2.17962 0 2 0.1422 2 0.317268V11.6828C2 11.8579 2.17962 12 2.40095 12H10.488C10.7094 12 10.8889 11.8579 10.8889 11.6828V9.90624H11V8.87517H10.8889V4.55255H11ZM5.71681 0.358855H7.28311V0.517474H5.71681V0.358855ZM7.065 11.5991C7.065 11.6251 7.03834 11.646 7.00589 11.646H6.14474C6.11204 11.646 6.08535 11.6251 6.08535 11.5991V11.1494C6.08535 11.1337 6.09537 11.1192 6.11143 11.1104L6.54229 10.8813C6.56258 10.8709 6.58838 10.8709 6.60866 10.8813L7.03917 11.1104C7.05874 11.1206 7.0684 11.1387 7.06504 11.1564V11.5991H7.065ZM10.3233 10.1402C10.3233 10.3153 10.1438 10.4574 9.92235 10.4574H2.97039C2.74909 10.4574 2.5694 10.3153 2.5694 10.1402V1.14264C2.5694 0.967515 2.74905 0.825371 2.97039 0.825371H9.92231C10.1438 0.825371 10.3233 0.967515 10.3233 1.14264V10.1402H10.3233Z" fill="#AAABAE"/>
</g>
<defs>
<clipPath id="clip0">
<rect width="12" height="12" fill="white" transform="translate(0.5)"/>
</clipPath>
</defs>
</svg>
