<svg width="12" height="12" viewBox="0 0 12 12" fill="none" xmlns="http://www.w3.org/2000/svg">
<path d="M11.4805 5.48047H1.77346L4.08971 3.16407C4.29263 2.96128 4.29263 2.6323 4.08971 2.42953C3.88679 2.22661 3.55781 2.22661 3.3552 2.42953L0.152188 5.6326C-0.0507295 5.8354 -0.0507295 6.1644 0.152188 6.36714L3.3552 9.57036C3.45663 9.67185 3.58955 9.72252 3.72245 9.72252C3.85535 9.72252 3.98828 9.67185 4.08971 9.57036C4.29263 9.36756 4.29263 9.03859 4.08971 8.83585L1.77346 6.51933H11.4805C11.7674 6.51933 12 6.28674 12 5.99989C12 5.71303 11.7674 5.48047 11.4805 5.48047Z" fill="#333333"/>
</svg>
