<svg width="12" height="12" viewBox="0 0 12 12" fill="none" xmlns="http://www.w3.org/2000/svg">
<rect width="12" height="12" fill="white"/>
<path d="M7.875 10.5C8.082 10.5 8.25 10.332 8.25 10.125V5.62501C8.25 5.41801 8.082 5.25 7.875 5.25C7.66801 5.25 7.50001 5.41799 7.50001 5.62501V10.125C7.50001 10.332 7.66799 10.5 7.875 10.5ZM10.125 1.5H7.875V0.750002C7.875 0.335627 7.53936 0 7.12498 0H4.87499C4.46062 0 4.12499 0.335627 4.12499 0.750002V1.5H1.875C1.46063 1.5 1.125 1.83563 1.125 2.25001V3.00001C1.125 3.414 1.46063 3.75001 1.875 3.75001V10.5C1.875 11.3284 2.54662 12 3.37501 12H8.62502C9.45339 12 10.125 11.3284 10.125 10.5V3.75001C10.5394 3.75001 10.875 3.414 10.875 3.00001V2.24999C10.875 1.83563 10.5394 1.5 10.125 1.5ZM4.87499 1.12499C4.87499 0.917998 5.04299 0.749986 5.24999 0.749986H6.74999C6.95699 0.749986 7.12498 0.917982 7.12498 1.12499V1.5C6.76161 1.5 4.87499 1.5 4.87499 1.5V1.12499ZM9.37499 10.5C9.37499 10.914 9.03938 11.25 8.625 11.25H3.37499C2.96061 11.25 2.62499 10.914 2.62499 10.5V3.75001H9.37499V10.5ZM9.75 3.00001H2.24998C2.04298 3.00001 1.87499 2.83201 1.87499 2.625C1.87499 2.41799 2.04298 2.24999 2.24998 2.24999H9.75C9.957 2.24999 10.125 2.41799 10.125 2.625C10.125 2.83201 9.957 3.00001 9.75 3.00001ZM4.12499 10.5C4.33199 10.5 4.5 10.332 4.5 10.125V5.62501C4.5 5.41801 4.332 5.25 4.12499 5.25C3.91798 5.25 3.74998 5.41799 3.74998 5.62501V10.125C3.74998 10.332 3.918 10.5 4.12499 10.5ZM5.99999 10.5C6.20699 10.5 6.37498 10.332 6.37498 10.125V5.62501C6.37498 5.41801 6.20699 5.25 5.99999 5.25C5.79299 5.25 5.62498 5.41799 5.62498 5.62501V10.125C5.625 10.332 5.79299 10.5 5.99999 10.5Z" fill="#8D929A"/>
</svg>
