<svg width="12" height="12" viewBox="0 0 12 12" fill="none" xmlns="http://www.w3.org/2000/svg">
    <path d="M6.45321 2.58689C6.43788 2.30063 6.14532 2.34933 5.85986 2.34933C6.07073 2.40549 6.27021 2.48363 6.45321 2.58689Z" fill="#AAABAE"/>
    <path d="M3.40166 1.86914C2.29349 1.86914 1.78341 3.27179 2.66929 3.97725C2.97129 3.17088 3.57247 2.59187 4.36059 2.36333C4.145 2.06529 3.79668 1.86914 3.40166 1.86914Z" fill="#AAABAE"/>
    <path d="M1.11232 3.75798C1.15748 3.90289 1.216 4.04192 1.28551 4.17363L0.921486 4.53786C0.82373 4.63561 0.82373 4.79429 0.921486 4.89224L1.56313 5.53409C1.60986 5.58082 1.67388 5.60711 1.74061 5.60711C1.80661 5.60711 1.8702 5.58082 1.91774 5.53409L2.28136 5.16986C2.33593 5.19874 2.39641 5.21644 2.45293 5.24135C2.45293 5.2372 2.45252 5.2329 2.45252 5.22875C2.45252 4.93111 2.48671 4.65033 2.54757 4.38667C2.10855 4.10412 1.81561 3.61367 1.81561 3.0537C1.81561 2.179 2.52714 1.46726 3.40164 1.46726C3.9938 1.46726 4.50506 1.79692 4.77798 2.27855C5.06935 2.24242 5.34305 2.24242 5.67251 2.30467C5.63013 2.17647 5.58026 2.051 5.51781 1.93339L5.88183 1.56899C5.92931 1.52206 5.95561 1.45824 5.95561 1.39189C5.95561 1.32551 5.92931 1.26171 5.88183 1.21478L5.24054 0.573342C5.19149 0.524261 5.12746 0.49991 5.06346 0.49991C4.99944 0.49991 4.93544 0.524261 4.88673 0.573342L4.52155 0.937743C4.38963 0.867852 4.25101 0.809339 4.10574 0.765164V0.250335C4.10574 0.11212 3.9942 0 3.85558 0H2.94811C2.81027 0 2.69755 0.11212 2.69755 0.250335V0.765139C2.55266 0.809314 2.41401 0.867826 2.28169 0.937718L1.91774 0.573721C1.86864 0.52464 1.80464 0.50029 1.74061 0.50029C1.67661 0.50029 1.61223 0.52464 1.56353 0.573519L0.921486 1.21496C0.874757 1.26209 0.84846 1.32569 0.84846 1.39226C0.84846 1.45882 0.874757 1.52244 0.921486 1.56937L1.28551 1.93357C1.21597 2.06551 1.15748 2.20433 1.11313 2.34923H0.598707C0.460087 2.34923 0.348145 2.46152 0.348145 2.59994V3.50744C0.348145 3.64545 0.460087 3.75798 0.598707 3.75798H1.11232Z" fill="#AAABAE"/>
    <path d="M8.97348 8.61366C9.37483 8.39355 9.65047 7.97223 9.65047 7.4833C9.65047 6.7698 9.06972 6.18945 8.35622 6.18945C8.1053 6.18945 7.87279 6.26445 7.67412 6.38853C7.55515 6.86209 7.36783 7.31507 7.1228 7.70852C7.81742 7.8391 8.45476 8.1554 8.97348 8.61366Z" fill="#AAABAE"/>
    <path d="M11.6516 6.99413C11.6516 6.84472 11.5302 6.72375 11.3814 6.72375H10.8262C10.7783 6.56725 10.7147 6.41725 10.6393 6.27491L11.0323 5.88186C11.0834 5.83119 11.1116 5.76249 11.1116 5.69082C11.1116 5.61914 11.0834 5.55041 11.0323 5.49958L10.3404 4.80747C10.2878 4.75462 10.2183 4.72812 10.1492 4.72812C10.0801 4.72812 10.011 4.75462 9.95837 4.80747L9.56451 5.20072C9.42232 5.12532 9.27273 5.06213 9.11565 5.01439V4.45915C9.11565 4.30994 8.99509 4.18896 8.84587 4.18896H7.86694C7.80134 4.18896 7.74362 4.21526 7.69653 4.25415C7.77897 4.55493 7.82413 4.88108 7.82413 5.22899C7.82413 5.44987 7.80688 5.67414 7.77467 5.89714C7.95686 5.82998 8.15083 5.7878 8.35623 5.7878C9.29157 5.7878 10.0526 6.54864 10.0526 7.48375C10.0526 8.08145 9.74043 8.60528 9.27195 8.90745C9.61281 9.28129 9.88375 9.72481 10.0601 10.2217C10.0891 10.2318 10.1193 10.239 10.1496 10.239C10.2187 10.239 10.2878 10.2127 10.3408 10.1599L11.0331 9.46777C11.0838 9.4171 11.1117 9.3484 11.1117 9.27674C11.1117 9.20507 11.0838 9.13637 11.0331 9.08549L10.6393 8.69224C10.7147 8.55011 10.7783 8.40006 10.8262 8.24341H11.3814C11.4529 8.24341 11.5224 8.21514 11.5727 8.16406C11.6233 8.11359 11.652 8.04471 11.652 7.97302L11.6516 6.99413Z" fill="#AAABAE"/>
    <path d="M9.50858 10.466C9.08877 9.2308 7.97949 8.38126 6.69894 8.26562C6.27013 8.71972 5.73922 9.0078 5.13799 9.0078C4.53721 9.0078 4.0059 8.71974 3.57749 8.26562C2.29619 8.38126 1.18685 9.2308 0.767047 10.4662L0.534995 11.1493C0.468618 11.3458 0.500403 11.5624 0.621373 11.731C0.742317 11.8997 0.937097 11.9998 1.14442 11.9998H9.13118C9.33891 11.9998 9.53369 11.8997 9.65466 11.731C9.7752 11.5624 9.80741 11.3458 9.74063 11.1493L9.50858 10.466Z" fill="#AAABAE"/>
    <path d="M3.05566 5.22846C3.05566 6.76053 3.98829 8.40449 5.13803 8.40449C6.28822 8.40449 7.2208 6.76053 7.2208 5.22846C7.22083 2.05265 3.05566 2.04635 3.05566 5.22846Z" fill="#AAABAE"/>
</svg>
