<svg width="12" height="12" viewBox="0 0 12 12" fill="none" xmlns="http://www.w3.org/2000/svg">
<g clip-path="url(#clip0)">
<path d="M11.8437 3.31238C11.7395 3.06249 11.6144 2.86451 11.4685 2.71872L9.28104 0.531189C9.13532 0.385476 8.93734 0.260423 8.68735 0.156193C8.43749 0.0520736 8.20826 0 7.99996 0H0.749937C0.54167 0 0.364543 0.0728702 0.218693 0.21872C0.0728429 0.364488 0 0.541587 0 0.749964V11.25C0 11.4585 0.0728429 11.6356 0.218693 11.7814C0.364543 11.9271 0.54167 12 0.749937 12H11.25C11.4584 12 11.6355 11.9271 11.7813 11.7814C11.927 11.6356 11.9999 11.4585 11.9999 11.25V4.00001C11.9999 3.7916 11.9478 3.56246 11.8437 3.31238ZM5 1.2499C5 1.18221 5.02476 1.12373 5.07426 1.07414C5.12371 1.02478 5.18232 1.00004 5.25002 1.00004H6.75009C6.81762 1.00004 6.87621 1.02473 6.92568 1.07414C6.97529 1.12373 7.00003 1.18221 7.00003 1.2499V3.74993C7.00003 3.81774 6.97513 3.8763 6.92568 3.9258C6.87621 3.97514 6.81762 3.9999 6.75009 3.9999H5.25002C5.18232 3.9999 5.12368 3.97522 5.07426 3.9258C5.02476 3.87621 5 3.81774 5 3.74993V1.2499ZM9.00009 11.0001H2.99991V7.99999H9.00009V11.0001ZM11.0002 11.0001H10H9.99983V7.74997C9.99983 7.54153 9.92696 7.36454 9.78117 7.21864C9.63537 7.07284 9.45827 6.99989 9.25003 6.99989H2.74994C2.54159 6.99989 2.36447 7.07284 2.21862 7.21864C2.07285 7.36444 1.99992 7.54153 1.99992 7.74997V11.0001H0.999907V0.999934H1.9999V4.24998C1.9999 4.45836 2.07274 4.63537 2.21859 4.78122C2.36444 4.92699 2.54156 4.99994 2.74991 4.99994H7.25008C7.45832 4.99994 7.63561 4.92699 7.78122 4.78122C7.92693 4.63546 7.99996 4.45836 7.99996 4.24998V0.999934C8.07806 0.999934 8.17955 1.02593 8.30469 1.078C8.4298 1.13005 8.51829 1.18212 8.57037 1.2342L10.7658 3.42961C10.8179 3.48168 10.87 3.57163 10.922 3.69917C10.9743 3.82682 11.0002 3.92711 11.0002 4.00001V11.0001H11.0002Z" fill="#57565C"/>
</g>
<defs>
<clipPath id="clip0">
<rect width="12" height="12" fill="white"/>
</clipPath>
</defs>
</svg>
