<svg width="41" height="42" viewBox="0 0 41 42" fill="none" xmlns="http://www.w3.org/2000/svg">
<rect width="41" height="42" fill="#1F232A"/>
<g clip-path="url(#clip0)">
<path d="M27.5879 25.5997L24.1467 22.1582C23.634 22.9556 22.9554 23.6339 22.158 24.1466L25.5995 27.5882C26.1489 28.1375 27.0397 28.1375 27.5879 27.5882C28.1373 27.0398 28.1373 26.149 27.5879 25.5997Z" fill="white"/>
<path d="M24.2509 18.625C24.2509 15.5187 21.7324 13 18.626 13C15.5197 13 13.001 15.5187 13.001 18.625C13.001 21.7313 15.5197 24.2499 18.626 24.2499C21.7324 24.2499 24.2509 21.7313 24.2509 18.625ZM18.626 22.8436C16.2996 22.8436 14.4073 20.9514 14.4073 18.625C14.4073 16.2987 16.2996 14.4063 18.626 14.4063C20.9523 14.4063 22.8448 16.2987 22.8448 18.625C22.8448 20.9514 20.9523 22.8436 18.626 22.8436Z" fill="white"/>
<path d="M15.3438 18.625H16.2811C16.2811 17.3327 17.3326 16.2812 18.6249 16.2812V15.3438C16.8159 15.3438 15.3438 16.8159 15.3438 18.625Z" fill="white"/>
</g>
<defs>
<clipPath id="clip0">
<rect width="15" height="15" fill="white" transform="translate(13 13)"/>
</clipPath>
</defs>
</svg>
