<svg width="12" height="12" viewBox="0 0 12 12" fill="none" xmlns="http://www.w3.org/2000/svg">
<g clip-path="url(#clip0)">
<path d="M11.3858 4.74129L10.5435 4.5984C10.4558 4.31513 10.3429 4.0419 10.2051 3.78119L10.7014 3.08681C10.912 2.79102 10.8794 2.38742 10.6212 2.13173L9.87418 1.38472C9.7338 1.24434 9.5483 1.16663 9.35027 1.16663C9.19485 1.16663 9.04695 1.21425 8.92161 1.3045L8.22472 1.80084C7.95399 1.65795 7.67073 1.54014 7.37743 1.4524L7.23706 0.62015C7.17689 0.261681 6.86856 0.000976562 6.50508 0.000976562H5.44973C5.08624 0.000976562 4.77791 0.261681 4.71775 0.62015L4.57235 1.47245C4.2916 1.56019 4.01836 1.6755 3.75765 1.81588L3.06829 1.31954C2.94295 1.2293 2.79255 1.18167 2.63713 1.18167C2.43909 1.18167 2.25108 1.25938 2.11321 1.39976L1.36368 2.14677C1.10799 2.40247 1.0729 2.80606 1.28347 3.10186L1.78482 3.80626C1.64695 4.06947 1.53665 4.34271 1.45142 4.62597L0.619173 4.76635C0.260704 4.82652 0 5.13485 0 5.49833V6.55368C0 6.91716 0.260704 7.2255 0.619173 7.28566L1.47148 7.43105C1.55921 7.71181 1.67452 7.98505 1.8149 8.24575L1.32107 8.93261C1.1105 9.22841 1.14309 9.632 1.40129 9.88769L2.1483 10.6347C2.28868 10.7751 2.47419 10.8528 2.67222 10.8528C2.82764 10.8528 2.97554 10.8052 3.10088 10.7149L3.80528 10.2136C4.05847 10.3464 4.32418 10.4542 4.59742 10.5395L4.7378 11.3817C4.79796 11.7402 5.1063 12.0009 5.46978 12.0009H6.52764C6.89112 12.0009 7.19945 11.7402 7.25962 11.3817L7.4025 10.5395C7.68577 10.4517 7.95901 10.3389 8.21971 10.201L8.91409 10.6974C9.03943 10.7876 9.18983 10.8353 9.34525 10.8353C9.54329 10.8353 9.72879 10.7575 9.86917 10.6172L10.6162 9.87014C10.8719 9.61445 10.907 9.21086 10.6964 8.91506L10.2001 8.21818C10.3379 7.95497 10.4532 7.68173 10.5385 7.40097L11.3808 7.26059C11.7392 7.20043 11.9999 6.8921 11.9999 6.52861V5.47326C12.0049 5.10978 11.7442 4.80145 11.3858 4.74129ZM11.3281 6.52861C11.3281 6.5612 11.3055 6.58878 11.273 6.59379L10.2201 6.76927C10.0873 6.79183 9.98197 6.88959 9.94938 7.01744C9.85413 7.38593 9.70873 7.73939 9.51321 8.06777C9.44552 8.18309 9.45054 8.32597 9.52825 8.43627L10.1474 9.30863C10.165 9.33369 10.1625 9.3713 10.1399 9.39386L9.39288 10.1409C9.37533 10.1584 9.35779 10.1609 9.34525 10.1609C9.33021 10.1609 9.31768 10.1559 9.30765 10.1484L8.4378 9.52922C8.33001 9.45151 8.18462 9.4465 8.0693 9.51418C7.74092 9.70971 7.38746 9.8551 7.01897 9.95036C6.88861 9.98295 6.79085 10.0907 6.7708 10.2211L6.59281 11.2739C6.5878 11.3065 6.56023 11.3291 6.52764 11.3291H5.47229C5.4397 11.3291 5.41212 11.3065 5.40711 11.2739L5.23164 10.2211C5.20908 10.0882 5.11131 9.98295 4.98347 9.95036C4.625 9.85761 4.27906 9.71472 3.95569 9.52922C3.90305 9.49914 3.84288 9.4841 3.78523 9.4841C3.71755 9.4841 3.64736 9.50416 3.5897 9.54677L2.71233 10.171C2.6998 10.1785 2.68726 10.1835 2.67473 10.1835C2.6647 10.1835 2.64465 10.181 2.6271 10.1634L1.88008 9.41642C1.85752 9.39386 1.85501 9.35876 1.87256 9.33119L2.48923 8.46635C2.56694 8.35605 2.57195 8.21066 2.50427 8.09535C2.30874 7.76947 2.15833 7.41601 2.06307 7.04752C2.02798 6.91967 1.9227 6.82191 1.79234 6.79935L0.731978 6.61886C0.69939 6.61385 0.676829 6.58627 0.676829 6.55368V5.49833C0.676829 5.46574 0.69939 5.43817 0.731978 5.43315L1.7773 5.25768C1.91016 5.23512 2.01795 5.13736 2.05054 5.007C2.14329 4.63851 2.28618 4.28255 2.4792 3.95416C2.54688 3.83885 2.53936 3.69596 2.46165 3.58817L1.83747 2.7108C1.81992 2.68573 1.82242 2.64813 1.84499 2.62557L2.592 1.87855C2.60955 1.861 2.6271 1.8585 2.63963 1.8585C2.65467 1.8585 2.66721 1.86351 2.67723 1.87103L3.54207 2.4877C3.65237 2.56541 3.79776 2.57042 3.91307 2.50274C4.23895 2.30721 4.59241 2.1568 4.9609 2.06154C5.08875 2.02645 5.18651 1.92117 5.20908 1.79081L5.38956 0.730448C5.39458 0.69786 5.42215 0.675299 5.45474 0.675299H6.51009C6.54268 0.675299 6.57025 0.69786 6.57527 0.730448L6.75074 1.77577C6.7733 1.90863 6.87107 2.01642 7.00142 2.04901C7.37994 2.14427 7.74092 2.29217 8.07683 2.4902C8.19214 2.55789 8.33502 2.55287 8.44532 2.47516L9.31016 1.85348C9.32269 1.84596 9.33522 1.84095 9.34776 1.84095C9.35779 1.84095 9.37784 1.84346 9.39539 1.861L10.1424 2.60802C10.165 2.63058 10.1675 2.66568 10.1499 2.69325L9.53075 3.5631C9.45304 3.67089 9.44803 3.81629 9.51571 3.9316C9.71124 4.25998 9.85663 4.61344 9.95189 4.98194C9.98448 5.11229 10.0923 5.21005 10.2226 5.23011L11.2755 5.40809C11.3081 5.4131 11.3306 5.44067 11.3306 5.47326V6.52861H11.3281Z" fill="#8D929A"/>
<path d="M6.00112 3.40918C4.57226 3.40918 3.41162 4.56982 3.41162 5.99868C3.41162 7.42754 4.57226 8.58817 6.00112 8.58817C7.42998 8.58817 8.59061 7.42754 8.59061 5.99868C8.59061 4.56982 7.42998 3.40918 6.00112 3.40918ZM6.00112 7.91135C4.94577 7.91135 4.08845 7.05403 4.08845 5.99868C4.08845 4.94333 4.94577 4.08601 6.00112 4.08601C7.05647 4.08601 7.91379 4.94333 7.91379 5.99868C7.91379 7.05403 7.05647 7.91135 6.00112 7.91135Z" fill="#8D929A"/>
</g>
<defs>
<clipPath id="clip0">
<rect width="12" height="12" fill="white"/>
</clipPath>
</defs>
</svg>
